<?xml version="1.0" encoding="iso-8859-1"?>
<!-- Uploaded to: SVG Repo, www.svgrepo.com, Generator: SVG Repo Mixer Tools -->
<svg height="800px" width="800px" version="1.1" id="Layer_1" xmlns="http://www.w3.org/2000/svg" xmlns:xlink="http://www.w3.org/1999/xlink" 
	 viewBox="0 0 500.8 500.8" xml:space="preserve">
<path style="fill:#0463AA;" d="M426.4,161.6c0,36-62.4,200.8-106.4,200.8H180.8c-44,0-106.4-164.8-106.4-200.8V112
	c0-35.2,38.4-61.6,82.4-93.6h189.6c44,32,80,58.4,80,93.6V161.6z"/>
<path style="fill:#0D7DC9;" d="M322.4,362.4H180.8c-44,0-106.4-164.8-106.4-200.8V112c0-35.2,38.4-61.6,82.4-93.6h189.6"/>
<path style="fill:#0463AA;" d="M500.8,482.4c-15.2-80-121.6-64-250.4-64s-235.2-16-250.4,64H500.8z"/>
<path style="fill:#2DA5E8;" d="M180.8,362.4c-48,0-106.4-164.8-106.4-200.8V112c0-35.2,38.4-61.6,82.4-93.6"/>
<path style="fill:#32CEB3;" d="M323.2,394.4c0,9.6,0,16-9.6,16H187.2c-9.6,0-9.6-6.4-9.6-16l0,0c0-9.6,8-16,17.6-16h110.4
	C315.2,378.4,323.2,384.8,323.2,394.4L323.2,394.4z"/>
<path style="fill:#25ADB7;" d="M323.2,394.4L323.2,394.4c0,9.6,0,16-9.6,16H187.2c-9.6,0-9.6-6.4-9.6-16l0,0"/>
<g>
	<path style="fill:#0463AA;" d="M160.8,149.6c0-24,40-84.8,89.6-84.8s89.6,61.6,89.6,84.8c0,24-40,23.2-89.6,23.2
		C200.8,173.6,160.8,173.6,160.8,149.6z"/>
	<path style="fill:#0463AA;" d="M162.4,447.2c0,8-8,11.2-19.2,11.2h-16.8c-11.2,0-63.2-6.4-63.2-14.4l40.8-54.4
		c0-8,11.2-11.2,22.4-11.2h16.8c11.2,0,19.2,4,19.2,12V447.2z"/>
</g>
<path style="fill:#074589;" d="M103.2,389.6c0-8,11.2-11.2,22.4-11.2h16.8c11.2,0,19.2,4,19.2,12v56.8c0,8-8,11.2-19.2,11.2h-20"/>
<path style="fill:#0463AA;" d="M338.4,447.2c0,8,6.4,11.2,17.6,11.2h16.8c11.2,0,60.8-4.8,60.8-12.8l-40-55.2c0-8-9.6-12-20.8-12
	H356c-11.2,0-17.6,4-17.6,12V447.2z"/>
<path style="fill:#074589;" d="M393.6,390.4c0-8-9.6-12-20.8-12H356c-11.2,0-17.6,4-17.6,12v56.8c0,8,6.4,11.2,17.6,11.2h14.4"/>
<path style="fill:#5BF4D0;" d="M220.8,198.4c0,2.4,1.6,4,4,4H276c2.4,0,4-1.6,4-4l0,0c0-2.4-1.6-4-4-4h-51.2
	C222.4,194.4,220.8,196,220.8,198.4L220.8,198.4z"/>
<g>
	<circle style="fill:#32CEB3;" cx="297.6" cy="66.4" r="6.4"/>
	<circle style="fill:#32CEB3;" cx="266.4" cy="66.4" r="6.4"/>
	<circle style="fill:#32CEB3;" cx="234.4" cy="66.4" r="6.4"/>
	<circle style="fill:#32CEB3;" cx="203.2" cy="66.4" r="6.4"/>
</g>
<path style="fill:#5BF4D0;" d="M160.8,132c0-24,40-43.2,89.6-43.2S340,108,340,132s-40,23.2-89.6,23.2S160.8,155.2,160.8,132z"/>
<path style="fill:#32CEB3;" d="M160.8,132c0-24,40-43.2,89.6-43.2S340,108,340,132"/>
<circle style="fill:#1F9093;" cx="250.4" cy="122.4" r="25.6"/>
<path style="fill:#16757C;" d="M250.4,96c14.4,0,25.6,12,25.6,25.6s-12,25.6-25.6,25.6"/>
<g>
	<circle style="fill:#FCE0E0;" cx="240.8" cy="112" r="10.4"/>
	<circle style="fill:#FCE0E0;" cx="265.6" cy="130.4" r="3.2"/>
</g>
<path style="fill:#074589;" d="M170.4,328v30.4c0,2.4,6.4,3.2,10.4,3.2h138.4c4,0,10.4-0.8,10.4-3.2V328l-79.2-47.2L170.4,328z"/>
<path style="fill:#0463AA;" d="M251.2,280.8L170.4,328v30.4c0,2.4,6.4,3.2,10.4,3.2h138.4c4,0,8,0,10.4-2.4"/>
<path style="fill:#074589;" d="M15.2,450.4c-7.2,8-12,24-15.2,32h500.8c-2.4-8-8-24-15.2-32H15.2z"/>
<polyline style="fill:#2DA5E8;" points="251.2,280.8 170.4,328 170.4,359.2 "/>
</svg>